<svg fill="none" height="100%" width="100%" viewBox="0 0 774 570" xmlns:xlink="http://www.w3.org/1999/xlink" xmlns="http://www.w3.org/2000/svg"><defs><filter id="i0"><feColorMatrix values="0 0 0 0 1 0 0 0 0 1 0 0 0 0 1 0 0 0 1 0" type="matrix" /></filter><mask height="20000" width="20000" y="-10000" x="-10000" maskContentUnits="userSpaceOnUse" maskUnits="userSpaceOnUse" style="mask-type: alpha" mask-type="alpha" id="i1"><g transform="matrix(1,0,0,1,-345.75,-307.5)"><g filter="url(#i0)"><g transform="translate(159.398,1149.414)"><animateTransform repeatCount="indefinite" type="translate" attributeName="transform" dur="1.667s" begin="0s" calcMode="spline" values="159.398 1149.414; 159.398 569.414; 159.398 569.414" keyTimes="0; 0.36; 1" keySplines="0.2 0 0.2 1; 0 0 1 1" fill="freeze" /><g transform="scale(1,1) translate(186.352,-261.914)"><g id="i2" transform="matrix(1,0,0,1,-186.352,176.414)"><rect ry="20" rx="20" height="171" width="90" y="-85.5" x="-45" fill="#4c9acc" /></g></g></g></g></g></mask><filter id="i3"><feColorMatrix values="0 0 0 0 1 0 0 0 0 1 0 0 0 0 1 0 0 0 1 0" type="matrix" /></filter><mask height="20000" width="20000" y="-10000" x="-10000" maskContentUnits="userSpaceOnUse" maskUnits="userSpaceOnUse" style="mask-type: alpha" mask-type="alpha" id="i4"><g transform="matrix(1,0,0,1,-459.5,-285)"><g filter="url(#i3)"><g transform="translate(273.148,1149.414)"><animateTransform repeatCount="indefinite" type="translate" attributeName="transform" dur="1.667s" begin="0s" calcMode="spline" values="273.148 1149.414; 273.148 569.414; 273.148 569.414" keyTimes="0; 0.42; 1" keySplines="0.2 0 0.2 1; 0 0 1 1" fill="freeze" /><g transform="scale(1,1) translate(186.352,-284.414)"><g id="i2" transform="matrix(1,0,0,1,-186.352,176.414)"><rect ry="20" rx="20" height="216" width="90" y="-108" x="-45" fill="#4c9acc" /></g></g></g></g></g></mask><filter id="i5"><feColorMatrix values="0 0 0 0 1 0 0 0 0 1 0 0 0 0 1 0 0 0 1 0" type="matrix" /></filter><mask height="20000" width="20000" y="-10000" x="-10000" maskContentUnits="userSpaceOnUse" maskUnits="userSpaceOnUse" style="mask-type: alpha" mask-type="alpha" id="i6"><g transform="matrix(1,0,0,1,-573.25,-255)"><g filter="url(#i5)"><g transform="translate(386.898,1149.414)"><animateTransform repeatCount="indefinite" type="translate" attributeName="transform" dur="1.667s" begin="0s" calcMode="spline" values="386.898 1149.414; 386.898 569.414; 386.898 569.414" keyTimes="0; 0.54; 1" keySplines="0.2 0 0.2 1; 0 0 1 1" fill="freeze" /><g transform="scale(1,1) translate(186.352,-314.414)"><g id="i2" transform="matrix(1,0,0,1,-186.352,176.414)"><rect ry="20" rx="20" height="276" width="90" y="-138" x="-45" fill="#4c9acc" /></g></g></g></g></g></mask><filter id="i7"><feColorMatrix values="0 0 0 0 1 0 0 0 0 1 0 0 0 0 1 0 0 0 1 0" type="matrix" /></filter><mask height="20000" width="20000" y="-10000" x="-10000" maskContentUnits="userSpaceOnUse" maskUnits="userSpaceOnUse" style="mask-type: alpha" mask-type="alpha" id="i8"><g transform="matrix(1,0,0,1,-687,-219)"><g filter="url(#i7)"><g transform="translate(500.648,1149.414)"><animateTransform repeatCount="indefinite" type="translate" attributeName="transform" dur="1.667s" begin="0s" calcMode="spline" values="500.648 1149.414; 500.648 569.414; 500.648 569.414" keyTimes="0; 0.66; 1" keySplines="0.2 0 0.2 1; 0 0 1 1" fill="freeze" /><g transform="scale(1,1) translate(186.352,-350.414)"><g id="i2" transform="matrix(1,0,0,1,-186.352,176.414)"><rect ry="20" rx="20" height="348" width="90" y="-174" x="-45" fill="#4c9acc" /></g></g></g></g></g></mask><filter id="i9"><feColorMatrix values="0 0 0 0 1 0 0 0 0 1 0 0 0 0 1 0 0 0 1 0" type="matrix" /></filter><mask height="20000" width="20000" y="-10000" x="-10000" maskContentUnits="userSpaceOnUse" maskUnits="userSpaceOnUse" style="mask-type: alpha" mask-type="alpha" id="i10"><g transform="matrix(1,0,0,1,-800.75,-171)"><g filter="url(#i9)"><g transform="translate(614.398,1149.414)"><animateTransform repeatCount="indefinite" type="translate" attributeName="transform" dur="1.667s" begin="0s" calcMode="spline" values="614.398 1149.414; 614.398 569.414; 614.398 569.414" keyTimes="0; 0.78; 1" keySplines="0.2 0 0.2 1; 0 0 1 1" fill="freeze" /><g transform="scale(1,1) translate(186.352,-398.414)"><g id="i2" transform="matrix(1,0,0,1,-186.352,176.414)"><rect ry="20" rx="20" height="444" width="90" y="-222" x="-45" fill="#4c9acc" /></g></g></g></g></g></mask><filter id="i11"><feColorMatrix values="0 0 0 0 1 0 0 0 0 1 0 0 0 0 1 0 0 0 1 0" type="matrix" /></filter><mask height="20000" width="20000" y="-10000" x="-10000" maskContentUnits="userSpaceOnUse" maskUnits="userSpaceOnUse" style="mask-type: alpha" mask-type="alpha" id="i12"><g transform="matrix(1,0,0,1,-914.5,-108)"><g filter="url(#i11)"><g transform="translate(728.148,1149.414)"><animateTransform repeatCount="indefinite" type="translate" attributeName="transform" dur="1.667s" begin="0s" calcMode="spline" values="728.148 1149.414; 728.148 569.414; 728.148 569.414" keyTimes="0; 0.88; 1" keySplines="0.2 0 0.2 1; 0 0 1 1" fill="freeze" /><g transform="scale(1,1) translate(186.352,-461.414)"><g id="i2" transform="matrix(1,0,0,1,-186.352,176.414)"><rect ry="20" rx="20" height="570" width="90" y="-285" x="-45" fill="#4c9acc" /></g></g></g></g></g></mask><filter id="i13"><feColorMatrix values="0 0 0 0 1 0 0 0 0 1 0 0 0 0 1 0 0 0 1 0" type="matrix" /></filter><mask height="20000" width="20000" y="-10000" x="-10000" maskContentUnits="userSpaceOnUse" maskUnits="userSpaceOnUse" style="mask-type: alpha" mask-type="alpha" id="i14"><g transform="matrix(1,0,0,1,-232,-327)"><g filter="url(#i13)"><g transform="translate(45.648,713.414)"><animateTransform repeatCount="indefinite" type="translate" attributeName="transform" dur="1.667s" begin="0s" calcMode="spline" values="45.648 713.414; 45.648 713.414; 45.648 569.414; 45.648 569.414" keyTimes="0; 0.06; 0.32; 1" keySplines="0 0 1 1; 0.2 0 0.2 1; 0 0 1 1" fill="freeze" /><g transform="scale(1,1) translate(186.352,-242.414)"><g id="i2" transform="matrix(1,0,0,1,-186.352,176.414)"><rect ry="20" rx="20" height="132" width="90" y="-66" x="-45" fill="#82c1ea" /></g></g></g></g></g></mask><filter id="i15"><feColorMatrix values="0 0 0 0 1 0 0 0 0 1 0 0 0 0 1 0 0 0 1 0" type="matrix" /></filter><mask height="20000" width="20000" y="-10000" x="-10000" maskContentUnits="userSpaceOnUse" maskUnits="userSpaceOnUse" style="mask-type: alpha" mask-type="alpha" id="i16"><g filter="url(#i15)" transform="matrix(1,0,0,1,345.75,305.586)"><g id="i2" transform="matrix(1,0,0,1,-186.352,176.414)"><rect ry="20" rx="20" height="176" width="90" y="-88" x="-45" fill="#82c1ea" /></g></g></mask><filter id="i17"><feColorMatrix values="0 0 0 0 1 0 0 0 0 1 0 0 0 0 1 0 0 0 1 0" type="matrix" /></filter><mask height="20000" width="20000" y="-10000" x="-10000" maskContentUnits="userSpaceOnUse" maskUnits="userSpaceOnUse" style="mask-type: alpha" mask-type="alpha" id="i18"><g filter="url(#i17)" transform="matrix(1,0,0,1,459.5,295.086)"><g id="i2" transform="matrix(1,0,0,1,-186.352,176.414)"><rect ry="20" rx="20" height="197" width="90" y="-98.5" x="-45" fill="#82c1ea" /></g></g></mask><filter id="i19"><feColorMatrix values="0 0 0 0 1 0 0 0 0 1 0 0 0 0 1 0 0 0 1 0" type="matrix" /></filter><mask height="20000" width="20000" y="-10000" x="-10000" maskContentUnits="userSpaceOnUse" maskUnits="userSpaceOnUse" style="mask-type: alpha" mask-type="alpha" id="i20"><g filter="url(#i19)" transform="matrix(1,0,0,1,573.25,283.086)"><g id="i2" transform="matrix(1,0,0,1,-186.352,176.414)"><rect ry="20" rx="20" height="221" width="90" y="-110.5" x="-45" fill="#82c1ea" /></g></g></mask><filter id="i21"><feColorMatrix values="0 0 0 0 1 0 0 0 0 1 0 0 0 0 1 0 0 0 1 0" type="matrix" /></filter><mask height="20000" width="20000" y="-10000" x="-10000" maskContentUnits="userSpaceOnUse" maskUnits="userSpaceOnUse" style="mask-type: alpha" mask-type="alpha" id="i22"><g filter="url(#i21)" transform="matrix(1,0,0,1,687,271.086)"><g id="i2" transform="matrix(1,0,0,1,-186.352,176.414)"><rect ry="20" rx="20" height="245" width="90" y="-122.5" x="-45" fill="#82c1ea" /></g></g></mask><filter id="i23"><feColorMatrix values="0 0 0 0 1 0 0 0 0 1 0 0 0 0 1 0 0 0 1 0" type="matrix" /></filter><mask height="20000" width="20000" y="-10000" x="-10000" maskContentUnits="userSpaceOnUse" maskUnits="userSpaceOnUse" style="mask-type: alpha" mask-type="alpha" id="i24"><g filter="url(#i23)" transform="matrix(1,0,0,1,800.75,256.086)"><g id="i2" transform="matrix(1,0,0,1,-186.352,176.414)"><rect ry="20" rx="20" height="275" width="90" y="-137.5" x="-45" fill="#82c1ea" /></g></g></mask><filter id="i25"><feColorMatrix values="0 0 0 0 1 0 0 0 0 1 0 0 0 0 1 0 0 0 1 0" type="matrix" /></filter><mask height="20000" width="20000" y="-10000" x="-10000" maskContentUnits="userSpaceOnUse" maskUnits="userSpaceOnUse" style="mask-type: alpha" mask-type="alpha" id="i26"><g filter="url(#i25)" transform="matrix(1,0,0,1,914.5,242.586)"><g id="i2" transform="matrix(1,0,0,1,-186.352,176.414)"><rect ry="20" rx="20" height="302" width="90" y="-151" x="-45" fill="#82c1ea" /></g></g></mask></defs><g mask="url(#i1)" transform="matrix(1,0,0,1,345.75,307.5)" id="i27"><g id="i2" transform="matrix(1,0,0,1,-186.352,176.414)"><rect ry="20" rx="20" height="171" width="90" y="-85.5" x="-45" fill="#4c9acc" /></g></g><g display="none" id="i28"><g transform="translate(159.398,1149.414)"><animateTransform repeatCount="indefinite" type="translate" attributeName="transform" dur="1.667s" begin="0s" calcMode="spline" values="159.398 1149.414; 159.398 569.414; 159.398 569.414" keyTimes="0; 0.36; 1" keySplines="0.2 0 0.2 1; 0 0 1 1" fill="freeze" /><g transform="scale(1,1) translate(186.352,-261.914)"><g id="i2" transform="matrix(1,0,0,1,-186.352,176.414)"><rect ry="20" rx="20" height="171" width="90" y="-85.5" x="-45" fill="#4c9acc" /></g></g></g></g><g mask="url(#i4)" transform="matrix(1,0,0,1,459.5,285)" id="i29"><g id="i2" transform="matrix(1,0,0,1,-186.352,176.414)"><rect ry="20" rx="20" height="216" width="90" y="-108" x="-45" fill="#4c9acc" /></g></g><g display="none" id="i30"><g transform="translate(273.148,1149.414)"><animateTransform repeatCount="indefinite" type="translate" attributeName="transform" dur="1.667s" begin="0s" calcMode="spline" values="273.148 1149.414; 273.148 569.414; 273.148 569.414" keyTimes="0; 0.42; 1" keySplines="0.2 0 0.2 1; 0 0 1 1" fill="freeze" /><g transform="scale(1,1) translate(186.352,-284.414)"><g id="i2" transform="matrix(1,0,0,1,-186.352,176.414)"><rect ry="20" rx="20" height="216" width="90" y="-108" x="-45" fill="#4c9acc" /></g></g></g></g><g mask="url(#i6)" transform="matrix(1,0,0,1,573.25,255)" id="i31"><g id="i2" transform="matrix(1,0,0,1,-186.352,176.414)"><rect ry="20" rx="20" height="276" width="90" y="-138" x="-45" fill="#4c9acc" /></g></g><g display="none" id="i32"><g transform="translate(386.898,1149.414)"><animateTransform repeatCount="indefinite" type="translate" attributeName="transform" dur="1.667s" begin="0s" calcMode="spline" values="386.898 1149.414; 386.898 569.414; 386.898 569.414" keyTimes="0; 0.54; 1" keySplines="0.2 0 0.2 1; 0 0 1 1" fill="freeze" /><g transform="scale(1,1) translate(186.352,-314.414)"><g id="i2" transform="matrix(1,0,0,1,-186.352,176.414)"><rect ry="20" rx="20" height="276" width="90" y="-138" x="-45" fill="#4c9acc" /></g></g></g></g><g mask="url(#i8)" transform="matrix(1,0,0,1,687,219)" id="i33"><g id="i2" transform="matrix(1,0,0,1,-186.352,176.414)"><rect ry="20" rx="20" height="348" width="90" y="-174" x="-45" fill="#4c9acc" /></g></g><g display="none" id="i34"><g transform="translate(500.648,1149.414)"><animateTransform repeatCount="indefinite" type="translate" attributeName="transform" dur="1.667s" begin="0s" calcMode="spline" values="500.648 1149.414; 500.648 569.414; 500.648 569.414" keyTimes="0; 0.66; 1" keySplines="0.2 0 0.2 1; 0 0 1 1" fill="freeze" /><g transform="scale(1,1) translate(186.352,-350.414)"><g id="i2" transform="matrix(1,0,0,1,-186.352,176.414)"><rect ry="20" rx="20" height="348" width="90" y="-174" x="-45" fill="#4c9acc" /></g></g></g></g><g mask="url(#i10)" transform="matrix(1,0,0,1,800.75,171)" id="i35"><g id="i2" transform="matrix(1,0,0,1,-186.352,176.414)"><rect ry="20" rx="20" height="444" width="90" y="-222" x="-45" fill="#4c9acc" /></g></g><g display="none" id="i36"><g transform="translate(614.398,1149.414)"><animateTransform repeatCount="indefinite" type="translate" attributeName="transform" dur="1.667s" begin="0s" calcMode="spline" values="614.398 1149.414; 614.398 569.414; 614.398 569.414" keyTimes="0; 0.78; 1" keySplines="0.2 0 0.2 1; 0 0 1 1" fill="freeze" /><g transform="scale(1,1) translate(186.352,-398.414)"><g id="i2" transform="matrix(1,0,0,1,-186.352,176.414)"><rect ry="20" rx="20" height="444" width="90" y="-222" x="-45" fill="#4c9acc" /></g></g></g></g><g mask="url(#i12)" transform="matrix(1,0,0,1,914.5,108)" id="i37"><g id="i2" transform="matrix(1,0,0,1,-186.352,176.414)"><rect ry="20" rx="20" height="570" width="90" y="-285" x="-45" fill="#4c9acc" /></g></g><g display="none" id="i38"><g transform="translate(728.148,1149.414)"><animateTransform repeatCount="indefinite" type="translate" attributeName="transform" dur="1.667s" begin="0s" calcMode="spline" values="728.148 1149.414; 728.148 569.414; 728.148 569.414" keyTimes="0; 0.88; 1" keySplines="0.2 0 0.2 1; 0 0 1 1" fill="freeze" /><g transform="scale(1,1) translate(186.352,-461.414)"><g id="i2" transform="matrix(1,0,0,1,-186.352,176.414)"><rect ry="20" rx="20" height="570" width="90" y="-285" x="-45" fill="#4c9acc" /></g></g></g></g><g mask="url(#i14)" transform="matrix(1,0,0,1,232,327)" id="i39"><g id="i2" transform="matrix(1,0,0,1,-186.352,176.414)"><rect ry="20" rx="20" height="132" width="90" y="-66" x="-45" fill="#82c1ea" /></g></g><g display="none" id="i40"><g transform="translate(45.648,713.414)"><animateTransform repeatCount="indefinite" type="translate" attributeName="transform" dur="1.667s" begin="0s" calcMode="spline" values="45.648 713.414; 45.648 713.414; 45.648 569.414; 45.648 569.414" keyTimes="0; 0.06; 0.32; 1" keySplines="0 0 1 1; 0.2 0 0.2 1; 0 0 1 1" fill="freeze" /><g transform="scale(1,1) translate(186.352,-242.414)"><g id="i2" transform="matrix(1,0,0,1,-186.352,176.414)"><rect ry="20" rx="20" height="132" width="90" y="-66" x="-45" fill="#82c1ea" /></g></g></g></g><g mask="url(#i16)" id="i41"><g transform="translate(159.398,733.414)"><animateTransform repeatCount="indefinite" type="translate" attributeName="transform" dur="1.667s" begin="0s" calcMode="spline" values="159.398 733.414; 159.398 733.414; 159.398 569.414; 159.398 569.414" keyTimes="0; 0.06; 0.4; 1" keySplines="0 0 1 1; 0.2 0 0.2 1; 0 0 1 1" fill="freeze" /><g transform="scale(1,1) translate(186.352,-254.414)"><g id="i2" transform="matrix(1,0,0,1,-186.352,176.414)"><rect height="156" width="90" y="-78" x="-45" fill="#82c1ea" /></g></g></g></g><g display="none" transform="matrix(1,0,0,1,345.75,305.586)" id="i42"><g id="i2" transform="matrix(1,0,0,1,-186.352,176.414)"><rect ry="20" rx="20" height="176" width="90" y="-88" x="-45" fill="#82c1ea" /></g></g><g mask="url(#i18)" id="i43"><g transform="translate(273.148,755.414)"><animateTransform repeatCount="indefinite" type="translate" attributeName="transform" dur="1.667s" begin="0s" calcMode="spline" values="273.148 755.414; 273.148 755.414; 273.148 569.414; 273.148 569.414" keyTimes="0; 0.06; 0.44; 1" keySplines="0 0 1 1; 0.2 0 0.2 1; 0 0 1 1" fill="freeze" /><g transform="scale(1,1) translate(186.352,-264.914)"><g id="i2" transform="matrix(1,0,0,1,-186.352,176.414)"><rect height="177" width="90" y="-88.5" x="-45" fill="#82c1ea" /></g></g></g></g><g display="none" transform="matrix(1,0,0,1,459.5,295.086)" id="i44"><g id="i2" transform="matrix(1,0,0,1,-186.352,176.414)"><rect ry="20" rx="20" height="197" width="90" y="-98.5" x="-45" fill="#82c1ea" /></g></g><g mask="url(#i20)" id="i45"><g transform="translate(386.898,775.414)"><animateTransform repeatCount="indefinite" type="translate" attributeName="transform" dur="1.667s" begin="0s" calcMode="spline" values="386.898 775.414; 386.898 775.414; 386.898 569.414; 386.898 569.414" keyTimes="0; 0.06; 0.48; 1" keySplines="0 0 1 1; 0.2 0 0.2 1; 0 0 1 1" fill="freeze" /><g transform="scale(1,1) translate(186.352,-276.914)"><g id="i2" transform="matrix(1,0,0,1,-186.352,176.414)"><rect height="201" width="90" y="-100.5" x="-45" fill="#82c1ea" /></g></g></g></g><g display="none" transform="matrix(1,0,0,1,573.25,283.086)" id="i46"><g id="i2" transform="matrix(1,0,0,1,-186.352,176.414)"><rect ry="20" rx="20" height="221" width="90" y="-110.5" x="-45" fill="#82c1ea" /></g></g><g mask="url(#i22)" id="i47"><g transform="translate(500.648,799.414)"><animateTransform repeatCount="indefinite" type="translate" attributeName="transform" dur="1.667s" begin="0s" calcMode="spline" values="500.648 799.414; 500.648 799.414; 500.648 569.414; 500.648 569.414" keyTimes="0; 0.06; 0.5; 1" keySplines="0 0 1 1; 0.2 0 0.2 1; 0 0 1 1" fill="freeze" /><g transform="scale(1,1) translate(186.352,-288.914)"><g id="i2" transform="matrix(1,0,0,1,-186.352,176.414)"><rect height="225" width="90" y="-112.5" x="-45" fill="#82c1ea" /></g></g></g></g><g display="none" transform="matrix(1,0,0,1,687,271.086)" id="i48"><g id="i2" transform="matrix(1,0,0,1,-186.352,176.414)"><rect ry="20" rx="20" height="245" width="90" y="-122.5" x="-45" fill="#82c1ea" /></g></g><g mask="url(#i24)" id="i49"><g transform="translate(614.398,827.414)"><animateTransform repeatCount="indefinite" type="translate" attributeName="transform" dur="1.667s" begin="0s" calcMode="spline" values="614.398 827.414; 614.398 827.414; 614.398 569.414; 614.398 569.414" keyTimes="0; 0.06; 0.52; 1" keySplines="0 0 1 1; 0.2 0 0.2 1; 0 0 1 1" fill="freeze" /><g transform="scale(1,1) translate(186.352,-303.914)"><g id="i2" transform="matrix(1,0,0,1,-186.352,176.414)"><rect height="255" width="90" y="-127.5" x="-45" fill="#82c1ea" /></g></g></g></g><g display="none" transform="matrix(1,0,0,1,800.75,256.086)" id="i50"><g id="i2" transform="matrix(1,0,0,1,-186.352,176.414)"><rect ry="20" rx="20" height="275" width="90" y="-137.5" x="-45" fill="#82c1ea" /></g></g><g mask="url(#i26)" id="i51"><g transform="translate(728.148,853.414)"><animateTransform repeatCount="indefinite" type="translate" attributeName="transform" dur="1.667s" begin="0s" calcMode="spline" values="728.148 853.414; 728.148 853.414; 728.148 569.414; 728.148 569.414" keyTimes="0; 0.06; 0.56; 1" keySplines="0 0 1 1; 0.2 0 0.2 1; 0 0 1 1" fill="freeze" /><g transform="scale(1,1) translate(186.352,-317.414)"><g id="i2" transform="matrix(1,0,0,1,-186.352,176.414)"><rect height="282" width="90" y="-141" x="-45" fill="#82c1ea" /></g></g></g></g><g display="none" transform="matrix(1,0,0,1,914.5,242.586)" id="i52"><g id="i2" transform="matrix(1,0,0,1,-186.352,176.414)"><rect ry="20" rx="20" height="302" width="90" y="-151" x="-45" fill="#82c1ea" /></g></g></svg>